<svg width="1200" height="800" viewBox="0 0 1200 800" fill="none" xmlns="http://www.w3.org/2000/svg">
  <rect width="1200" height="800" rx="48" fill="#0B1322"/>
  <rect x="68" y="70" width="1064" height="660" rx="36" fill="#111C31" stroke="rgba(255,255,255,0.08)"/>
  <rect x="104" y="120" width="280" height="42" rx="21" fill="#0F1729"/>
  <rect x="104" y="210" width="560" height="360" rx="28" fill="#0C1526"/>
  <rect x="698" y="210" width="330" height="160" rx="28" fill="#0C1526"/>
  <rect x="698" y="392" width="330" height="178" rx="28" fill="#0C1526"/>
  <path d="M136 478C182 478 199 438 230 438C267 438 284 520 334 520C388 520 406 294 470 294C523 294 551 478 612 478" stroke="#059669" stroke-width="18" stroke-linecap="round"/>
  <path d="M136 478C182 478 199 438 230 438C267 438 284 520 334 520C388 520 406 294 470 294C523 294 551 478 612 478" stroke="#A7F3D0" stroke-opacity="0.18" stroke-width="42" stroke-linecap="round"/>
  <circle cx="470" cy="294" r="18" fill="#FACC15"/>
  <circle cx="334" cy="520" r="14" fill="#0EA5E9"/>
  <rect x="742" y="248" width="118" height="16" rx="8" fill="#E8EEF7" fill-opacity="0.45"/>
  <rect x="742" y="278" width="196" height="28" rx="14" fill="#E8EEF7" fill-opacity="0.92"/>
  <rect x="742" y="324" width="152" height="16" rx="8" fill="#E8EEF7" fill-opacity="0.45"/>
  <rect x="742" y="430" width="244" height="20" rx="10" fill="#FACC15"/>
  <rect x="742" y="468" width="216" height="20" rx="10" fill="#059669"/>
  <rect x="742" y="506" width="172" height="20" rx="10" fill="#0EA5E9"/>
</svg>