<svg width="1200" height="800" viewBox="0 0 1200 800" fill="none" xmlns="http://www.w3.org/2000/svg">
  <rect width="1200" height="800" rx="48" fill="#0B1322"/>
  <rect x="60" y="70" width="1080" height="660" rx="36" fill="#111C31" stroke="rgba(255,255,255,0.08)"/>
  <rect x="104" y="126" width="260" height="42" rx="21" fill="#0F1729"/>
  <rect x="104" y="206" width="992" height="92" rx="28" fill="#0C1526"/>
  <rect x="104" y="322" width="992" height="92" rx="28" fill="#0E182B"/>
  <rect x="104" y="438" width="992" height="92" rx="28" fill="#0C1526"/>
  <rect x="104" y="554" width="992" height="92" rx="28" fill="#0E182B"/>
  <circle cx="150" cy="252" r="22" fill="#FACC15"/>
  <circle cx="150" cy="368" r="22" fill="#94A3B8"/>
  <circle cx="150" cy="484" r="22" fill="#B45309"/>
  <rect x="196" y="230" width="240" height="18" rx="9" fill="#E8EEF7" fill-opacity="0.9"/>
  <rect x="196" y="256" width="180" height="14" rx="7" fill="#E8EEF7" fill-opacity="0.45"/>
  <rect x="196" y="346" width="240" height="18" rx="9" fill="#E8EEF7" fill-opacity="0.9"/>
  <rect x="196" y="372" width="180" height="14" rx="7" fill="#E8EEF7" fill-opacity="0.45"/>
  <rect x="196" y="462" width="240" height="18" rx="9" fill="#E8EEF7" fill-opacity="0.9"/>
  <rect x="196" y="488" width="180" height="14" rx="7" fill="#E8EEF7" fill-opacity="0.45"/>
  <rect x="800" y="226" width="180" height="20" rx="10" fill="#059669"/>
  <rect x="758" y="342" width="222" height="20" rx="10" fill="#FACC15"/>
  <rect x="726" y="458" width="254" height="20" rx="10" fill="#0EA5E9"/>
  <rect x="686" y="574" width="294" height="20" rx="10" fill="#EF4444"/>
</svg>